<svg width="24" height="28" viewBox="0 0 24 28" fill="none" xmlns="http://www.w3.org/2000/svg">
<path d="M12.4944 27.9168C24.2841 23.9197 24.1001 14.5283 23.9716 7.66841C23.9716 6.96556 23.9453 6.27985 23.9453 5.62272V4.93701C23.9453 4.83233 23.9242 4.72867 23.8833 4.63196C23.8423 4.53525 23.7823 4.44737 23.7066 4.37335C23.631 4.29933 23.5412 4.24062 23.4423 4.20056C23.3435 4.1605 23.2375 4.13988 23.1305 4.13988H22.4208C18.4491 4.13988 15.5608 3.07703 13.0551 0.691344L12.5645 0.225635C12.4124 0.0809476 12.2086 0 11.9965 0C11.7843 0 11.5806 0.0809476 11.4285 0.225635L10.9407 0.691344C8.43212 3.07703 5.54385 4.13988 1.57502 4.13988H0.871206C0.65511 4.13988 0.447864 4.22386 0.295061 4.37335C0.142258 4.52284 0.0564143 4.7256 0.0564143 4.93701V5.62558C0.0564143 6.28271 0.0564145 6.96556 0.0301309 7.67127C-0.104208 14.5283 -0.288193 23.9225 11.5015 27.9196C11.8234 28.0278 12.1731 28.0268 12.4944 27.9168ZM9.92153 17.3454C9.80957 17.3031 9.71889 17.2197 9.66872 17.113C9.61856 17.0064 9.61287 16.8848 9.65285 16.774L10.7363 13.7941C10.402 13.5371 10.158 13.1845 10.0381 12.7855C9.9182 12.3865 9.92845 11.9608 10.0674 11.5677C10.2064 11.1747 10.4672 10.8338 10.8134 10.5925C11.1597 10.3512 11.5743 10.2215 11.9994 10.2215C12.4245 10.2215 12.8391 10.3512 13.1854 10.5925C13.5316 10.8338 13.7924 11.1747 13.9314 11.5677C14.0703 11.9608 14.0806 12.3865 13.9607 12.7855C13.8408 13.1845 13.5967 13.5371 13.2625 13.7941L14.3343 16.7826C14.3742 16.8933 14.3685 17.0149 14.3184 17.1216C14.2682 17.2283 14.1775 17.3117 14.0656 17.354C12.7329 17.8612 11.2542 17.8612 9.92153 17.354V17.3454Z" fill="#D17533"/>
</svg>
