<svg width="195" height="38" viewBox="0 0 195 38" fill="none" xmlns="http://www.w3.org/2000/svg">
<path d="M55.9717 0H0V37.3187H55.9717V0Z" fill="#164194"/>
<path d="M26.7945 8.1317L27.9768 7.27051L29.1562 8.1317L28.7081 6.74012L29.9071 5.87753H28.429L27.9768 4.46641L27.5245 5.87892L26.0464 5.87753L27.2454 6.74012L26.7945 8.1317Z" fill="#FFED00"/>
<path d="M20.6825 9.77458L21.8647 8.91339L23.0441 9.77458L22.5961 8.3816L23.795 7.51902H22.3155L21.8633 6.1065L21.4111 7.52041L19.933 7.51902L21.1319 8.3816L20.6825 9.77458Z" fill="#FFED00"/>
<path d="M17.3913 10.5897L16.9391 12.0022L15.4609 12.0008L16.6599 12.8634L16.2105 14.2578L17.3913 13.3966L18.5721 14.2578L18.1227 12.8634L19.323 12.0008H17.8435L17.3913 10.5897Z" fill="#FFED00"/>
<path d="M15.7513 19.5002L16.9307 20.3628L16.4826 18.9685L17.6816 18.1073H16.2035L15.7513 16.6947L15.299 18.1101L13.8195 18.1073L15.0199 18.9685L14.5704 20.3628L15.7513 19.5002Z" fill="#FFED00"/>
<path d="M17.8435 24.2291L17.3913 22.8166L16.9391 24.2305L15.4609 24.2291L16.6599 25.0917L16.2105 26.4847L17.3913 25.6221L18.5735 26.4847L18.1227 25.0917L19.323 24.2291H17.8435Z" fill="#FFED00"/>
<path d="M22.3253 28.7095L21.8731 27.2998L21.4209 28.7109L19.9413 28.7095L21.1403 29.5721L20.6923 30.9665L21.8731 30.1025L23.0539 30.9665L22.6045 29.5721L23.8048 28.7095H22.3253Z" fill="#FFED00"/>
<path d="M28.429 30.3342L27.9768 28.9217L27.5259 30.3356L26.0464 30.3342L27.2454 31.1954L26.7959 32.5898L27.9768 31.7286L29.159 32.5898L28.7081 31.1954L29.9085 30.3342H28.429Z" fill="#FFED00"/>
<path d="M34.5341 28.7095L34.0818 27.2998L33.6296 28.7109L32.1529 28.7095L33.3505 29.5721L32.901 30.9665L34.0818 30.1025L35.2641 30.9665L34.8132 29.5721L36.0136 28.7095H34.5341Z" fill="#FFED00"/>
<path d="M39.0173 24.2291L38.5637 22.8166L38.1101 24.2305L36.6333 24.2291L37.8323 25.0917L37.3829 26.4847L38.5637 25.6221L39.7459 26.4847L39.2951 25.0917L40.494 24.2291H39.0173Z" fill="#FFED00"/>
<path d="M42.1173 18.0892H40.6378L40.1842 16.6766L39.7333 18.0905L38.2552 18.0892L39.4542 18.9503L39.0061 20.3447L40.1842 19.4821L41.3664 20.3447L40.9169 18.9503L42.1173 18.0892Z" fill="#FFED00"/>
<path d="M37.3829 14.2396L38.5637 13.377L39.7459 14.2396L39.2951 12.8452L40.494 11.984H39.0173L38.5637 10.5729L38.1101 11.9854L36.6333 11.984L37.8323 12.8452L37.3829 14.2396Z" fill="#FFED00"/>
<path d="M34.1 6.10786L33.6478 7.52178L32.1683 7.51898L33.3672 8.38296L32.9178 9.77594L34.1014 8.91336L35.2808 9.77594L34.8314 8.38296L36.0318 7.51898H34.5522L34.1 6.10786Z" fill="#FFED00"/>
<path d="M77.4302 15.0449C76.3876 15.0449 75.5432 15.3785 74.8983 16.0429C74.2549 16.7087 73.8808 17.6955 73.7789 19.0047H80.9294C80.9085 17.8588 80.6182 16.9125 80.0557 16.1658C79.4918 15.419 78.6166 15.0449 77.4302 15.0449ZM77.4302 12.192C79.6607 12.192 81.4249 12.8578 82.7244 14.1866C84.0225 15.5167 84.6729 17.3689 84.6729 19.7417V21.707H73.6854C73.7259 23.2214 74.146 24.391 74.9444 25.2215C75.7414 26.0506 76.8468 26.4637 78.2593 26.4637C79.3229 26.4637 80.2832 26.3563 81.143 26.1413C82.0028 25.9264 82.8821 25.6151 83.7824 25.2061V28.3061C82.9631 28.6942 82.1144 28.9803 81.2351 29.1645C80.3558 29.3488 79.302 29.4409 78.0751 29.4409C76.4378 29.4409 74.996 29.1296 73.7468 28.5057C72.499 27.8818 71.522 26.9397 70.8171 25.6821C70.1108 24.4231 69.7591 22.8431 69.7591 20.9393C69.7591 18.0961 70.4598 15.9271 71.8611 14.4336C73.2625 12.9387 75.1175 12.192 77.4302 12.192Z" fill="white"/>
<path d="M102.105 12.4977V29.1325H99.066L98.544 26.983H98.3598C97.828 27.8428 97.091 28.4667 96.1503 28.8561C95.2095 29.2455 94.2171 29.4395 93.1731 29.4395C91.3111 29.4395 89.854 28.9594 88.8001 27.9977C87.7449 27.036 87.2188 25.4923 87.2188 23.3637V12.4991H91.0864V22.5961C91.0864 23.8453 91.3307 24.7749 91.822 25.389C92.3119 26.0031 93.0907 26.3088 94.1543 26.3088C95.7078 26.3088 96.7784 25.8189 97.3604 24.8363C97.9438 23.8537 98.2355 22.4523 98.2355 20.6322V12.4991H102.105V12.4977Z" fill="white"/>
<path d="M114.534 12.192C114.799 12.192 115.096 12.2074 115.423 12.2381C115.75 12.2688 116.016 12.3051 116.221 12.3455L115.884 15.9368C115.678 15.8964 115.427 15.8601 115.131 15.8294C114.834 15.7987 114.584 15.7833 114.379 15.7833C113.56 15.7833 112.793 15.9508 112.077 16.2886C111.361 16.6264 110.784 17.1442 110.344 17.8393C109.903 18.5358 109.684 19.4249 109.684 20.5094V29.1324H105.817V12.4977H108.795L109.347 15.3827H109.532C110.023 14.5034 110.698 13.7525 111.557 13.1272C112.417 12.5033 113.408 12.192 114.534 12.192Z" fill="white"/>
<path d="M120.426 20.7843C120.426 22.5444 120.737 23.9053 121.361 24.867C121.985 25.8287 122.992 26.3088 124.383 26.3088C125.753 26.3088 126.757 25.8287 127.392 24.867C128.025 23.9053 128.342 22.5444 128.342 20.7843C128.342 19.0257 128.025 17.676 127.392 16.7338C126.757 15.7917 125.745 15.3213 124.353 15.3213C122.962 15.3213 121.959 15.7917 121.347 16.7338C120.733 17.6746 120.426 19.0257 120.426 20.7843ZM132.302 20.7843C132.302 23.5466 131.586 25.6793 130.154 27.1839C128.722 28.6872 126.778 29.4395 124.322 29.4395C122.808 29.4395 121.457 29.1017 120.272 28.4262C119.084 27.7506 118.153 26.7694 117.479 25.4797C116.803 24.1914 116.466 22.6254 116.466 20.7843C116.466 18.0221 117.176 15.9006 118.597 14.4155C120.019 12.9318 121.958 12.1906 124.413 12.1906C125.947 12.1906 127.308 12.5242 128.494 13.1872C129.681 13.853 130.612 14.8244 131.287 16.1029C131.966 17.3829 132.302 18.9433 132.302 20.7843Z" fill="white"/>
<path d="M142.706 15.3213C141.335 15.3213 140.368 15.7317 139.806 16.5496C139.242 17.3689 138.952 18.6056 138.931 20.2623V20.7536C138.931 22.5332 139.201 23.8997 139.743 24.8516C140.284 25.8021 141.294 26.2781 142.766 26.2781C143.972 26.2781 144.868 25.7812 145.45 24.7888C146.034 23.7964 146.325 22.4411 146.325 20.7229C146.325 19.0048 146.034 17.6746 145.45 16.7338C144.87 15.7931 143.954 15.3213 142.706 15.3213ZM143.81 12.192C145.753 12.192 147.318 12.9136 148.506 14.3554C149.692 15.7987 150.285 17.9426 150.285 20.7843C150.285 23.6289 149.677 25.7826 148.459 27.2454C147.241 28.7095 145.661 29.4395 143.717 29.4395C142.488 29.4395 141.496 29.2148 140.74 28.764C139.983 28.3145 139.379 27.7925 138.929 27.1979H138.684C138.745 27.5873 138.801 28.0075 138.852 28.4569C138.903 28.9077 138.929 29.3362 138.929 29.7452V36.4965H135.063V12.4977H138.194L138.746 14.7072H138.931C139.401 14.0121 140.015 13.4189 140.772 12.9276C141.53 12.4377 142.541 12.192 143.81 12.192Z" fill="white"/>
<path d="M162.409 21.2757L160.384 21.3371C158.685 21.3985 157.508 21.6902 156.854 22.2122C156.199 22.7342 155.871 23.4349 155.871 24.3142C155.871 25.1112 156.101 25.6793 156.562 26.0171C157.023 26.3549 157.63 26.5238 158.388 26.5238C159.513 26.5238 160.465 26.2027 161.242 25.5579C162.019 24.9144 162.409 23.9569 162.409 22.6882V21.2757ZM159.677 12.192C161.825 12.192 163.457 12.6624 164.572 13.6045C165.687 14.5453 166.246 15.9983 166.246 17.9621V29.1324H163.514L162.747 26.8308H162.624C161.908 27.7325 161.15 28.3913 160.353 28.8114C159.554 29.2301 158.47 29.4395 157.099 29.4395C155.606 29.4395 154.368 29.0208 153.387 28.1819C152.404 27.3431 151.913 26.0436 151.913 24.2849C151.913 22.5667 152.542 21.2771 153.8 20.4173C155.057 19.5575 156.965 19.0773 159.524 18.9754L162.409 18.8833V18.0556C162.409 16.992 162.152 16.2341 161.641 15.7847C161.13 15.3339 160.413 15.1092 159.493 15.1092C158.654 15.1092 157.85 15.2278 157.084 15.4623C156.318 15.6968 155.554 15.9885 154.798 16.336L153.569 13.6352C154.387 13.2053 155.324 12.8578 156.378 12.5926C157.431 12.3246 158.531 12.192 159.677 12.192Z" fill="white"/>
<path d="M181.19 24.3142C181.19 25.992 180.591 27.2663 179.395 28.1345C178.198 29.004 176.485 29.4395 174.253 29.4395C173.088 29.4395 172.09 29.3572 171.262 29.1938C170.433 29.0305 169.631 28.7751 168.853 28.4262V25.1419C169.672 25.5314 170.577 25.858 171.569 26.1246C172.562 26.3911 173.497 26.5238 174.378 26.5238C175.441 26.5238 176.209 26.359 176.679 26.0324C177.15 25.7044 177.385 25.2648 177.385 24.712C177.385 24.3854 177.293 24.0937 177.109 23.8383C176.925 23.5829 176.567 23.3009 176.034 22.9938C175.503 22.6868 174.694 22.3085 173.61 21.8591C172.546 21.4292 171.661 20.9993 170.955 20.5708C170.249 20.1409 169.717 19.6301 169.36 19.0368C169.001 18.4436 168.822 17.676 168.822 16.7352C168.822 15.2418 169.416 14.1112 170.602 13.3435C171.788 12.5758 173.354 12.192 175.297 12.192C176.32 12.192 177.286 12.2953 178.198 12.4991C179.108 12.7042 180.023 13.0113 180.945 13.4203L179.716 16.2746C178.939 15.9466 178.182 15.6716 177.445 15.4455C176.708 15.2208 175.952 15.1078 175.174 15.1078C173.476 15.1078 172.627 15.5879 172.627 16.5496C172.627 16.8985 172.735 17.1944 172.95 17.4401C173.165 17.6857 173.543 17.9468 174.084 18.2231C174.626 18.4995 175.399 18.8317 176.401 19.2211C177.384 19.6091 178.233 20.0139 178.949 20.4326C179.665 20.8527 180.217 21.3636 180.607 21.9666C180.996 22.5709 181.19 23.3526 181.19 24.3142Z" fill="white"/>
<path d="M195 24.3142C195 25.992 194.401 27.2663 193.205 28.1345C192.007 29.004 190.295 29.4395 188.063 29.4395C186.896 29.4395 185.9 29.3572 185.072 29.1938C184.243 29.0305 183.44 28.7751 182.663 28.4262V25.1419C183.481 25.5314 184.387 25.858 185.379 26.1246C186.371 26.3911 187.307 26.5238 188.187 26.5238C189.251 26.5238 190.018 26.359 190.489 26.0324C190.959 25.7044 191.195 25.2648 191.195 24.712C191.195 24.3854 191.103 24.0937 190.919 23.8383C190.735 23.5829 190.377 23.3009 189.844 22.9938C189.312 22.6868 188.504 22.3085 187.42 21.8591C186.356 21.4292 185.471 20.9993 184.765 20.5708C184.059 20.1409 183.527 19.6301 183.169 19.0368C182.811 18.4436 182.632 17.676 182.632 16.7352C182.632 15.2418 183.225 14.1112 184.412 13.3435C185.598 12.5758 187.164 12.192 189.107 12.192C190.13 12.192 191.096 12.2953 192.007 12.4991C192.918 12.7042 193.833 13.0113 194.754 13.4203L193.526 16.2746C192.749 15.9466 191.992 15.6716 191.255 15.4455C190.52 15.2208 189.762 15.1078 188.984 15.1078C187.286 15.1078 186.437 15.5879 186.437 16.5496C186.437 16.8985 186.544 17.1944 186.759 17.4401C186.974 17.6857 187.353 17.9468 187.894 18.2231C188.436 18.4995 189.209 18.8317 190.211 19.2211C191.194 19.6091 192.042 20.0139 192.758 20.4326C193.474 20.8527 194.027 21.3636 194.417 21.9666C194.806 22.5709 195 23.3526 195 24.3142Z" fill="white"/>
</svg>
