<?xml version="1.0" encoding="utf-8"?>
<!-- Generator: Adobe Illustrator 16.0.0, SVG Export Plug-In . SVG Version: 6.00 Build 0)  -->
<!DOCTYPE svg PUBLIC "-//W3C//DTD SVG 1.1//EN" "http://www.w3.org/Graphics/SVG/1.1/DTD/svg11.dtd">
<svg version="1.1" id="Layer_1" xmlns="http://www.w3.org/2000/svg" xmlns:xlink="http://www.w3.org/1999/xlink" x="0px" y="0px"
     width="186px" height="143.333px" viewBox="0 0 186 143.333" enable-background="new 0 0 186 143.333" xml:space="preserve">
<polyline fill="#F4C000" points="154.393,34.091 161.51,11.843 178.562,6.082 168.157,36.275 154.393,34.091 "/>
<polyline fill="#FFFFFF" points="161.1,11.921 152.625,34.511 168.157,36.275 169.197,33.532 154.793,33.532 164.469,10.563 
	161.1,11.921 "/>
<polygon fill="#393E8F" points="161.1,11.921 152.625,34.511 168.157,36.275 169.197,33.532 154.793,33.532 164.469,10.563 "/>
<path fill="#FFFFFF" d="M170.556,27.578c0,0,0.04-0.113,0.11-0.317c0.859-2.735,7.116-22.383,7.956-23.328
	c0.92-1.015-5.088,17.079-5.678,18.344"/>
<path fill="#393E8F" d="M170.556,27.578c0,0,0.04-0.113,0.11-0.317c0.859-2.735,7.116-22.383,7.956-23.328
	c0.92-1.015-5.088,17.079-5.678,18.344"/>
<polyline fill="#F4C000" points="7.403,99.252 54.332,100.968 74.031,83.482 42.746,59.054 35.709,43.129 82.787,63.905 
	71.783,29.208 95.072,40.644 105.297,62.19 145.098,38.663 129.255,66.876 105.876,80.84 144.689,107.662 164.25,135.06 
	113.342,108.209 57.619,115.485 7.403,99.252 "/>
<path fill="#FFFFFF" d="M88.804,63.015c-24.799,1.073-58.493-27.116-58.493-27.116C28.252,63.01,67.664,83.196,67.664,83.196
	c-8.685,18.23-64.968,15.336-64.968,15.336c36.922,25.759,89.667,10.107,89.667,10.107c29.616,3.178,73.976,31.868,73.976,31.868
	c6.377-25.074-61.671-58.863-61.671-58.863c36.522-14.304,49.346-48.172,49.346-48.172s-31.794,22.812-47.967,25.22
	c0,0-0.08-27.343-38.332-28.993c0,0,38.222,4.565,35.323,33.913c0,0,23.149-4.572,46.808-25.6c0,0-14.813,27.089-51.896,43.671
	c0,0,60.762,30.137,66.659,55.4c0,0-43.21-30.865-72.456-32.245c0,0-50.087,14.922-83.251-4.583c0,0,51.956,6.846,64.329-17.645
	c0,0-40.431-18.513-41.61-43.57c0,0,37.182,31.486,57.333,27.733L88.804,63.015"/>
<path fill="#393E8F" d="M88.804,63.015c-24.799,1.073-58.493-27.116-58.493-27.116C28.252,63.01,67.664,83.196,67.664,83.196
	c-8.685,18.23-64.968,15.336-64.968,15.336c36.922,25.759,89.667,10.107,89.667,10.107c29.616,3.178,73.976,31.868,73.976,31.868
	c6.377-25.074-61.671-58.863-61.671-58.863c36.522-14.304,49.346-48.172,49.346-48.172s-31.794,22.812-47.967,25.22
	c0,0-0.08-27.343-38.332-28.993c0,0,38.222,4.565,35.323,33.913c0,0,23.149-4.572,46.808-25.6c0,0-14.813,27.089-51.896,43.671
	c0,0,60.762,30.137,66.659,55.4c0,0-43.21-30.865-72.456-32.245c0,0-50.087,14.922-83.251-4.583c0,0,51.956,6.846,64.329-17.645
	c0,0-40.431-18.513-41.61-43.57c0,0,37.182,31.486,57.333,27.733L88.804,63.015z"/>
<path fill="#FFFFFF" d="M65.385,35.6c0,0,5.356,2.173,6.677,2.345c1.319,0.172,4.148-0.91,6.727-0.576
	c2.58,0.336,6.418,2.181,6.077,4.116l-1.679-0.119c0,0-1.898-2.21-4.578-2.624c-2.689-0.412-4.338,1.018-6.627,0.653
	C68.393,38.822,65.385,35.6,65.385,35.6"/>
<path fill="#393E8F" d="M65.385,35.6c0,0,5.356,2.173,6.677,2.345c1.319,0.172,4.148-0.91,6.727-0.576
	c2.58,0.336,6.418,2.181,6.077,4.116l-1.679-0.119c0,0-1.898-2.21-4.578-2.624c-2.689-0.412-4.338,1.018-6.627,0.653
	C68.393,38.822,65.385,35.6,65.385,35.6z"/>
<path fill="#FFFFFF" d="M82.007,44.724l2.05,0.368c0,0-0.5-3.136-4.897-3.848c-3.069-0.501-4.469,0.445-5.668,0.938
	c-1.199,0.489-2.68,1.873-7.707-1.182c0,0,2.599,3.711,7.207,3.027c2.889-0.433,2.099-1.627,5.938-1.126
	C82.017,43.303,82.007,44.724,82.007,44.724"/>
<path fill="#393E8F" d="M82.007,44.724l2.05,0.368c0,0-0.5-3.136-4.897-3.848c-3.069-0.501-4.469,0.445-5.668,0.938
	c-1.199,0.489-2.68,1.873-7.707-1.182c0,0,2.599,3.711,7.207,3.027c2.889-0.433,2.099-1.627,5.938-1.126
	C82.017,43.303,82.007,44.724,82.007,44.724z"/>
<path fill="#FFFFFF" d="M65.685,46.067c0,0,3.908,2.752,6.646,1.976c2.74-0.776,5.777-2.479,8.756,0.192
	c0,0-3.418-1.374-5.418,0.215c-1.778,1.415-4.518,1.716-6.977,0.39C66.234,47.508,65.685,46.067,65.685,46.067"/>
<path fill="#393E8F" d="M65.685,46.067c0,0,3.908,2.752,6.646,1.976c2.74-0.776,5.777-2.479,8.756,0.192
	c0,0-3.418-1.374-5.418,0.215c-1.778,1.415-4.518,1.716-6.977,0.39C66.234,47.508,65.685,46.067,65.685,46.067z"/>
<path fill="#FFFFFF" d="M95.951,47.096c-0.13,0.748-0.84,1.244-1.578,1.112c-0.75-0.129-1.25-0.84-1.12-1.585s0.84-1.242,1.59-1.11
	C95.582,45.643,96.082,46.352,95.951,47.096"/>
<path fill="#262960" d="M95.951,47.096c-0.13,0.748-0.84,1.244-1.578,1.112c-0.75-0.129-1.25-0.84-1.12-1.585s0.84-1.242,1.59-1.11
	C95.582,45.643,96.082,46.352,95.951,47.096z"/>
<path fill="#FFFFFF" d="M103.048,53.269c-0.86,0.585-2.02,1.451-3.318,1.531c-2.329,0.146-4.309,0.015-4.988-1.372
	c0,0.031,0,0.061,0,0.089c0.11,1.851,2.479,3.212,5.277,3.034c1.23-0.074,2.339-0.436,3.189-0.968L103.048,53.269"/>
<path fill="#262960" d="M103.048,53.269c-0.86,0.585-2.02,1.451-3.318,1.531c-2.329,0.146-4.309,0.015-4.988-1.372
	c0,0.031,0,0.061,0,0.089c0.11,1.851,2.479,3.212,5.277,3.034c1.23-0.074,2.339-0.436,3.189-0.968L103.048,53.269z"/>
</svg>
